<svg width="24" height="24" viewBox="0 0 24 24" fill="none" xmlns="http://www.w3.org/2000/svg">
<path d="M20.61 19.19C21.2367 18.35 21.6668 17.3799 21.8685 16.3514C22.0702 15.323 22.0383 14.2623 21.7754 13.2478C21.5124 12.2333 21.0249 11.2907 20.349 10.4898C19.673 9.68878 18.8259 9.04982 17.87 8.62001C17.6618 7.42211 17.1833 6.28743 16.4708 5.30218C15.7584 4.31693 14.8307 3.50704 13.7583 2.93404C12.686 2.36104 11.4971 2.04001 10.2821 1.99534C9.06703 1.95068 7.85779 2.18355 6.74624 2.67627C5.63469 3.16898 4.65007 3.90858 3.8672 4.83886C3.08433 5.76914 2.5238 6.86563 2.2282 8.045C1.9326 9.22438 1.90972 10.4556 2.16128 11.6452C2.41285 12.8347 2.93224 13.9513 3.68001 14.91L2.29001 16.29C2.15125 16.4306 2.05725 16.6092 2.01988 16.8032C1.9825 16.9972 2.00343 17.1979 2.08001 17.38C2.15503 17.5626 2.28242 17.719 2.44614 17.8293C2.60986 17.9396 2.80258 17.999 3.00001 18H8.69001C9.25665 19.1946 10.15 20.2043 11.2668 20.9122C12.3835 21.6201 13.6778 21.9973 15 22H21C21.1974 21.999 21.3901 21.9396 21.5539 21.8293C21.7176 21.719 21.845 21.5626 21.92 21.38C21.9966 21.1979 22.0175 20.9972 21.9801 20.8032C21.9428 20.6092 21.8488 20.4306 21.71 20.29L20.61 19.19ZM8.00001 15C8.00138 15.3349 8.02812 15.6692 8.08001 16H5.41001L5.76001 15.66C5.85373 15.567 5.92813 15.4564 5.9789 15.3346C6.02967 15.2127 6.0558 15.082 6.0558 14.95C6.0558 14.818 6.02967 14.6873 5.9789 14.5654C5.92813 14.4436 5.85373 14.333 5.76001 14.24C5.19957 13.6857 4.75526 13.0252 4.45306 12.2972C4.15086 11.5692 3.99684 10.7882 4.00001 10C4.00001 8.40871 4.63215 6.88258 5.75737 5.75737C6.88258 4.63215 8.40871 4.00001 10 4.00001C11.2417 3.99255 12.4545 4.37439 13.4679 5.09187C14.4814 5.80935 15.2445 6.82638 15.65 8.00001H15C13.1435 8.00001 11.363 8.73751 10.0503 10.0503C8.7375 11.363 8.00001 13.1435 8.00001 15ZM18.54 20L18.59 20.05H15C13.8433 20.0479 12.7232 19.6449 11.8303 18.9096C10.9375 18.1743 10.3272 17.1522 10.1034 16.0174C9.87963 14.8825 10.0562 13.7052 10.6031 12.686C11.1499 11.6668 12.0333 10.8687 13.1026 10.4277C14.1719 9.9867 15.361 9.93006 16.4673 10.2674C17.5737 10.6048 18.5289 11.3153 19.1701 12.278C19.8114 13.2406 20.0991 14.3958 19.9842 15.5467C19.8693 16.6976 19.3589 17.7732 18.54 18.59C18.3516 18.7746 18.2438 19.0262 18.24 19.29C18.2406 19.4223 18.2674 19.5532 18.3189 19.6751C18.3703 19.7969 18.4455 19.9074 18.54 20V20Z" fill="#282828"/>
</svg>
