<svg width="24" height="24" viewBox="0 0 24 24" fill="none" xmlns="http://www.w3.org/2000/svg">
<mask id="path-1-outside-1" maskUnits="userSpaceOnUse" x="1" y="3" width="22" height="19" fill="black">
<rect fill="white" x="1" y="3" width="22" height="19"/>
<path d="M21.2496 10.8339L21.9651 10.1185C22.2922 9.80441 22.4864 9.37687 22.5077 8.9239C22.5291 8.47093 22.3759 8.02704 22.0797 7.68363C21.8471 7.42198 21.54 7.23786 21.1996 7.15603L21.3444 7.0112C21.6725 6.69752 21.8673 6.26969 21.8887 5.81628C21.91 5.36288 21.7562 4.91863 21.459 4.57553C21.3025 4.39976 21.1116 4.25801 20.898 4.15907C20.6845 4.06012 20.4529 4.0061 20.2176 4.00034C19.982 3.99573 19.7478 4.03803 19.5287 4.12477C19.3097 4.21151 19.11 4.34097 18.9414 4.5056L18.8615 4.58546C18.5556 4.29462 18.153 4.12694 17.731 4.11455C17.4961 4.11016 17.2627 4.15274 17.0445 4.23979C16.8263 4.32684 16.6276 4.4566 16.4602 4.62146L15.6363 5.44535C15.5456 5.06699 15.3302 4.73014 15.0249 4.48893C14.7196 4.24772 14.3421 4.11615 13.953 4.11538H13.9505C13.7237 4.11517 13.4991 4.15986 13.2897 4.24686C13.0802 4.33386 12.8901 4.46146 12.7302 4.62229L9.58524 7.76722C9.52637 7.25784 9.2878 6.78613 8.91239 6.43683C8.66635 6.21463 8.34414 6.0958 8.01275 6.10504C7.68136 6.11429 7.36627 6.25091 7.13302 6.48649L4.15361 9.4659C2.84264 10.7383 2.07299 12.4674 2.00493 14.2931C1.93687 16.1188 2.57563 17.9004 3.78822 19.2669C4.62097 20.1934 5.68764 20.8789 6.87642 21.2514C8.0652 21.6238 9.33229 21.6696 10.5449 21.384C10.8588 21.4266 11.1752 21.4485 11.4921 21.4493C12.4081 21.4499 13.3152 21.2688 14.1609 20.9165C15.0066 20.5643 15.774 20.0479 16.4188 19.3973L22.0177 13.8026C22.3439 13.4872 22.5374 13.0591 22.5585 12.6058C22.5795 12.1525 22.4266 11.7083 22.131 11.364C21.8984 11.1013 21.5908 10.9162 21.2496 10.8339V10.8339ZM21.4644 8.23648C21.6162 8.42344 21.692 8.66075 21.6767 8.9011C21.6613 9.14146 21.556 9.36721 21.3816 9.53335L19.6192 11.2958L19.5456 11.3694C19.5336 11.3578 19.5203 11.3487 19.5083 11.338C19.4789 11.3119 19.4492 11.2867 19.4185 11.2631C19.3879 11.2395 19.3457 11.2101 19.308 11.1853C19.2782 11.1658 19.2485 11.1439 19.2174 11.1277C19.1727 11.1025 19.1264 11.081 19.08 11.0599C19.0531 11.0475 19.0275 11.0338 19.0002 11.0231C18.925 10.9928 18.8477 10.9682 18.7689 10.9494L19.3407 10.3771L19.4843 10.2343C19.5574 10.1597 19.6241 10.0792 19.6838 9.9935C19.709 9.95833 19.7301 9.9215 19.7525 9.88509C19.7798 9.83957 19.8059 9.79405 19.8294 9.74688C19.853 9.6997 19.8808 9.64011 19.9023 9.58508C19.9097 9.5648 19.9155 9.5437 19.9225 9.52466C20.0022 9.29715 20.0353 9.05595 20.0198 8.8154V8.81167C20.0142 8.73352 20.0034 8.65583 19.9875 8.57911C19.9842 8.56256 19.9797 8.54601 19.9759 8.52946C19.9664 8.48808 19.9598 8.44669 19.9474 8.40987L20.1543 8.20296L20.1609 8.19634C20.2466 8.11039 20.349 8.04298 20.4618 7.99827C20.5747 7.95357 20.6955 7.93253 20.8168 7.93647C20.9395 7.93938 21.0604 7.96752 21.1718 8.01913C21.2832 8.07075 21.3828 8.14473 21.4644 8.23648V8.23648ZM19.5265 5.09155C19.6144 5.00459 19.7189 4.93633 19.8338 4.89089C19.9488 4.84544 20.0717 4.82375 20.1952 4.82713C20.3184 4.83042 20.4396 4.85897 20.5513 4.911C20.6629 4.96304 20.7628 5.03744 20.8445 5.12962C20.9965 5.31651 21.0722 5.55399 21.0564 5.79438C21.0406 6.03477 20.9345 6.26029 20.7593 6.42566L19.5745 7.60998L19.5663 7.61867L19.493 7.69232C19.4827 7.68281 19.4715 7.67494 19.4616 7.66584C19.4285 7.63646 19.3954 7.60791 19.3606 7.58308C19.3258 7.55825 19.2956 7.53632 19.2625 7.51439C19.2294 7.49246 19.1959 7.46928 19.1607 7.44942C19.1256 7.42956 19.078 7.40804 19.0366 7.389C19.0051 7.37411 18.9745 7.35797 18.9422 7.34514C18.8697 7.3164 18.7953 7.29262 18.7196 7.27397H18.7151L18.8603 7.12913C18.938 7.04996 19.0083 6.96396 19.0705 6.87216C19.0813 6.85685 19.0908 6.84154 19.1007 6.82581C19.1485 6.75282 19.191 6.67648 19.2278 6.59739C19.2381 6.57546 19.2493 6.55601 19.2588 6.53242C19.297 6.4421 19.3279 6.34883 19.3511 6.25352C19.3585 6.22331 19.3618 6.19269 19.3676 6.16248C19.38 6.09815 19.3891 6.03324 19.3949 5.96799C19.3983 5.92661 19.3999 5.88523 19.4003 5.84095C19.4003 5.78385 19.3974 5.72716 19.3925 5.67005C19.3887 5.62867 19.3871 5.58729 19.3809 5.54922C19.3675 5.46357 19.3478 5.37905 19.3217 5.29638L19.5265 5.09155ZM6.21064 20.0838C5.52782 19.7411 4.9143 19.275 4.40106 18.7091C3.33214 17.4997 2.77083 15.9246 2.83396 14.3117C2.89709 12.6988 3.57979 11.1724 4.73997 10.0502L7.71938 7.07079C7.80905 6.98069 7.93076 6.9298 8.05788 6.92926C8.16499 6.92777 8.26863 6.9673 8.34754 7.03975C8.47924 7.16307 8.58479 7.31162 8.65793 7.47656C8.73106 7.6415 8.77028 7.81946 8.77326 7.99986C8.77623 8.18026 8.74289 8.35942 8.67523 8.52667C8.60757 8.69393 8.50697 8.84588 8.3794 8.97347L5.57752 11.7737C5.53799 11.8119 5.50647 11.8575 5.48478 11.908C5.4631 11.9585 5.45168 12.0128 5.4512 12.0678C5.45073 12.1227 5.46119 12.1772 5.482 12.228C5.50281 12.2789 5.53353 12.3251 5.57239 12.364C5.61124 12.4028 5.65744 12.4335 5.7083 12.4543C5.75915 12.4751 5.81364 12.4856 5.86859 12.4851C5.92353 12.4847 5.97783 12.4732 6.02832 12.4516C6.07881 12.4299 6.12447 12.3983 6.16264 12.3588L8.96163 9.56025L13.3145 5.20741C13.3979 5.12339 13.4972 5.05675 13.6066 5.01137C13.716 4.96598 13.8333 4.94274 13.9517 4.94299V4.94299C14.1309 4.94308 14.306 4.99628 14.455 5.09587C14.6039 5.19545 14.72 5.33695 14.7885 5.50249C14.8571 5.66803 14.875 5.85017 14.8401 6.0259C14.8052 6.20163 14.7189 6.36306 14.5923 6.4898L9.93118 11.1518C9.89166 11.1899 9.86013 11.2356 9.83844 11.2861C9.81676 11.3366 9.80534 11.3909 9.80486 11.4458C9.80439 11.5007 9.81486 11.5552 9.83566 11.6061C9.85647 11.6569 9.8872 11.7031 9.92605 11.742C9.9649 11.7809 10.0111 11.8116 10.062 11.8324C10.1128 11.8532 10.1673 11.8637 10.2223 11.8632C10.2772 11.8627 10.3315 11.8513 10.382 11.8296C10.4325 11.8079 10.4781 11.7764 10.5163 11.7369L15.1778 7.07493L17.0466 5.20659C17.1336 5.11959 17.2375 5.05125 17.3519 5.00574C17.4662 4.96022 17.5886 4.93848 17.7117 4.94185C17.8347 4.94522 17.9557 4.97363 18.0674 5.02533C18.1791 5.07704 18.2791 5.15096 18.3613 5.24259C18.4758 5.37162 18.548 5.53265 18.5682 5.70398C18.5682 5.71516 18.5682 5.72716 18.5702 5.73874C18.5744 5.78233 18.5755 5.82617 18.5735 5.86992C18.5735 5.88523 18.5706 5.90054 18.5694 5.91585C18.5654 5.95758 18.5589 5.99904 18.5499 6.03999C18.5466 6.05489 18.5429 6.06979 18.5388 6.08468C18.5267 6.1285 18.5117 6.17149 18.4941 6.21338C18.4899 6.22372 18.4858 6.23407 18.4813 6.244C18.4303 6.35431 18.3603 6.45475 18.2744 6.5407L17.3139 7.50115L17.088 7.72667L17.0855 7.72957V7.73164L11.797 13.0176C11.7575 13.0558 11.726 13.1014 11.7043 13.1519C11.6826 13.2024 11.6712 13.2567 11.6707 13.3117C11.6702 13.3666 11.6807 13.4211 11.7015 13.4719C11.7223 13.5228 11.7531 13.569 11.7919 13.6079C11.8308 13.6467 11.877 13.6774 11.9278 13.6982C11.9787 13.7191 12.0332 13.7295 12.0881 13.729C12.1431 13.7286 12.1974 13.7172 12.2478 13.6955C12.2983 13.6738 12.344 13.6423 12.3822 13.6027L17.6685 8.31635C17.6855 8.29938 17.705 8.28738 17.7227 8.27207C17.8869 8.13436 18.0933 8.0571 18.3075 8.05316C18.3161 8.05316 18.324 8.05316 18.3323 8.05316C18.3939 8.05476 18.4551 8.06252 18.5152 8.07634C18.6959 8.11893 18.8591 8.21634 18.9824 8.35524C19.076 8.46117 19.1407 8.58944 19.1702 8.72767C19.2057 8.89218 19.1991 9.06295 19.1513 9.22428C19.1034 9.3856 19.0157 9.5323 18.8963 9.65087L18.8135 9.73363L17.1347 11.4083C17.131 11.412 17.1302 11.4166 17.1265 11.4203L13.6625 14.8843C13.623 14.9225 13.5914 14.9681 13.5697 15.0186C13.5481 15.0691 13.5366 15.1234 13.5362 15.1783C13.5357 15.2333 13.5462 15.2878 13.567 15.3386C13.5878 15.3895 13.6185 15.4357 13.6573 15.4745C13.6962 15.5134 13.7424 15.5441 13.7933 15.5649C13.8441 15.5857 13.8986 15.5962 13.9535 15.5957C14.0085 15.5952 14.0628 15.5838 14.1133 15.5621C14.1638 15.5405 14.2094 15.5089 14.2476 15.4694L17.7236 11.9959C17.8511 11.868 18.0142 11.7815 18.1916 11.7476L18.2036 11.7443C18.2642 11.7335 18.3258 11.729 18.3873 11.7311C18.443 11.7331 18.4984 11.7402 18.5528 11.7522L18.5702 11.7547C18.5913 11.7596 18.6116 11.7692 18.6311 11.7754C18.7872 11.8231 18.9274 11.9122 19.037 12.0332C19.076 12.0764 19.1102 12.1237 19.1392 12.1743C19.236 12.3616 19.2698 12.5751 19.2358 12.7832C19.2017 12.9913 19.1015 13.1829 18.9501 13.3296L13.3509 18.9259C13.2371 19.0397 13.1196 19.1477 12.9991 19.2512C12.9768 19.2698 12.954 19.2872 12.9317 19.3058C12.8357 19.3857 12.7384 19.4626 12.6387 19.5363C12.5998 19.5649 12.5597 19.5922 12.5204 19.6191C12.4351 19.6787 12.3488 19.736 12.2613 19.7912C12.2133 19.8214 12.1653 19.8504 12.1165 19.8794C12.0337 19.9269 11.9535 19.9725 11.8703 20.0167C11.8157 20.0457 11.7606 20.0747 11.7048 20.102C11.6278 20.14 11.5496 20.1752 11.471 20.2096C11.4085 20.2373 11.3468 20.2658 11.2823 20.2923C11.2177 20.3188 11.1482 20.342 11.0811 20.3664C11.0034 20.3945 10.9264 20.4239 10.8478 20.4492C10.8325 20.4541 10.8167 20.4579 10.8014 20.4624C10.6806 20.4996 10.5585 20.534 10.4352 20.5638C10.4315 20.5638 10.4286 20.5675 10.4244 20.5688C9.00666 20.9101 7.51381 20.7383 6.21064 20.0838V20.0838ZM15.8337 18.8109C14.9773 19.6739 13.8836 20.2627 12.6917 20.5025C12.7165 20.4868 12.7389 20.4674 12.7637 20.4512C12.8969 20.3656 13.0252 20.2712 13.1535 20.1756C13.228 20.1206 13.3049 20.0693 13.3769 20.0101C13.5313 19.886 13.679 19.7502 13.8243 19.6108C13.8607 19.5764 13.9008 19.5467 13.936 19.5115L19.5348 13.9127C19.6095 13.836 19.6774 13.7529 19.7376 13.6644C19.7583 13.635 19.7756 13.6048 19.7947 13.5746C19.8273 13.5222 19.8573 13.4682 19.8845 13.4128C19.9076 13.3656 19.9292 13.3189 19.9482 13.2704C19.9602 13.2394 19.9697 13.2075 19.9801 13.1757C20.0515 12.9626 20.0821 12.738 20.0703 12.5136C20.0703 12.5012 20.0703 12.4888 20.0703 12.4763C20.0653 12.4059 20.0558 12.3358 20.0417 12.2665C20.0363 12.2388 20.0289 12.2119 20.0223 12.1838C20.0157 12.1556 20.0086 12.1159 19.9983 12.0832L20.2023 11.8788C20.2891 11.7914 20.3929 11.7226 20.5073 11.6767C20.6217 11.6307 20.7442 11.6087 20.8675 11.6118C20.9907 11.615 21.1119 11.6432 21.2238 11.6949C21.3357 11.7466 21.4359 11.8206 21.5182 11.9123C21.6696 12.1006 21.7448 12.3388 21.729 12.5798C21.7132 12.8209 21.6076 13.0473 21.4329 13.2142L15.8337 18.8109Z"/>
</mask>
<path d="M21.2496 10.8339L21.9651 10.1185C22.2922 9.80441 22.4864 9.37687 22.5077 8.9239C22.5291 8.47093 22.3759 8.02704 22.0797 7.68363C21.8471 7.42198 21.54 7.23786 21.1996 7.15603L21.3444 7.0112C21.6725 6.69752 21.8673 6.26969 21.8887 5.81628C21.91 5.36288 21.7562 4.91863 21.459 4.57553C21.3025 4.39976 21.1116 4.25801 20.898 4.15907C20.6845 4.06012 20.4529 4.0061 20.2176 4.00034C19.982 3.99573 19.7478 4.03803 19.5287 4.12477C19.3097 4.21151 19.11 4.34097 18.9414 4.5056L18.8615 4.58546C18.5556 4.29462 18.153 4.12694 17.731 4.11455C17.4961 4.11016 17.2627 4.15274 17.0445 4.23979C16.8263 4.32684 16.6276 4.4566 16.4602 4.62146L15.6363 5.44535C15.5456 5.06699 15.3302 4.73014 15.0249 4.48893C14.7196 4.24772 14.3421 4.11615 13.953 4.11538H13.9505C13.7237 4.11517 13.4991 4.15986 13.2897 4.24686C13.0802 4.33386 12.8901 4.46146 12.7302 4.62229L9.58524 7.76722C9.52637 7.25784 9.2878 6.78613 8.91239 6.43683C8.66635 6.21463 8.34414 6.0958 8.01275 6.10504C7.68136 6.11429 7.36627 6.25091 7.13302 6.48649L4.15361 9.4659C2.84264 10.7383 2.07299 12.4674 2.00493 14.2931C1.93687 16.1188 2.57563 17.9004 3.78822 19.2669C4.62097 20.1934 5.68764 20.8789 6.87642 21.2514C8.0652 21.6238 9.33229 21.6696 10.5449 21.384C10.8588 21.4266 11.1752 21.4485 11.4921 21.4493C12.4081 21.4499 13.3152 21.2688 14.1609 20.9165C15.0066 20.5643 15.774 20.0479 16.4188 19.3973L22.0177 13.8026C22.3439 13.4872 22.5374 13.0591 22.5585 12.6058C22.5795 12.1525 22.4266 11.7083 22.131 11.364C21.8984 11.1013 21.5908 10.9162 21.2496 10.8339V10.8339ZM21.4644 8.23648C21.6162 8.42344 21.692 8.66075 21.6767 8.9011C21.6613 9.14146 21.556 9.36721 21.3816 9.53335L19.6192 11.2958L19.5456 11.3694C19.5336 11.3578 19.5203 11.3487 19.5083 11.338C19.4789 11.3119 19.4492 11.2867 19.4185 11.2631C19.3879 11.2395 19.3457 11.2101 19.308 11.1853C19.2782 11.1658 19.2485 11.1439 19.2174 11.1277C19.1727 11.1025 19.1264 11.081 19.08 11.0599C19.0531 11.0475 19.0275 11.0338 19.0002 11.0231C18.925 10.9928 18.8477 10.9682 18.7689 10.9494L19.3407 10.3771L19.4843 10.2343C19.5574 10.1597 19.6241 10.0792 19.6838 9.9935C19.709 9.95833 19.7301 9.9215 19.7525 9.88509C19.7798 9.83957 19.8059 9.79405 19.8294 9.74688C19.853 9.6997 19.8808 9.64011 19.9023 9.58508C19.9097 9.5648 19.9155 9.5437 19.9225 9.52466C20.0022 9.29715 20.0353 9.05595 20.0198 8.8154V8.81167C20.0142 8.73352 20.0034 8.65583 19.9875 8.57911C19.9842 8.56256 19.9797 8.54601 19.9759 8.52946C19.9664 8.48808 19.9598 8.44669 19.9474 8.40987L20.1543 8.20296L20.1609 8.19634C20.2466 8.11039 20.349 8.04298 20.4618 7.99827C20.5747 7.95357 20.6955 7.93253 20.8168 7.93647C20.9395 7.93938 21.0604 7.96752 21.1718 8.01913C21.2832 8.07075 21.3828 8.14473 21.4644 8.23648V8.23648ZM19.5265 5.09155C19.6144 5.00459 19.7189 4.93633 19.8338 4.89089C19.9488 4.84544 20.0717 4.82375 20.1952 4.82713C20.3184 4.83042 20.4396 4.85897 20.5513 4.911C20.6629 4.96304 20.7628 5.03744 20.8445 5.12962C20.9965 5.31651 21.0722 5.55399 21.0564 5.79438C21.0406 6.03477 20.9345 6.26029 20.7593 6.42566L19.5745 7.60998L19.5663 7.61867L19.493 7.69232C19.4827 7.68281 19.4715 7.67494 19.4616 7.66584C19.4285 7.63646 19.3954 7.60791 19.3606 7.58308C19.3258 7.55825 19.2956 7.53632 19.2625 7.51439C19.2294 7.49246 19.1959 7.46928 19.1607 7.44942C19.1256 7.42956 19.078 7.40804 19.0366 7.389C19.0051 7.37411 18.9745 7.35797 18.9422 7.34514C18.8697 7.3164 18.7953 7.29262 18.7196 7.27397H18.7151L18.8603 7.12913C18.938 7.04996 19.0083 6.96396 19.0705 6.87216C19.0813 6.85685 19.0908 6.84154 19.1007 6.82581C19.1485 6.75282 19.191 6.67648 19.2278 6.59739C19.2381 6.57546 19.2493 6.55601 19.2588 6.53242C19.297 6.4421 19.3279 6.34883 19.3511 6.25352C19.3585 6.22331 19.3618 6.19269 19.3676 6.16248C19.38 6.09815 19.3891 6.03324 19.3949 5.96799C19.3983 5.92661 19.3999 5.88523 19.4003 5.84095C19.4003 5.78385 19.3974 5.72716 19.3925 5.67005C19.3887 5.62867 19.3871 5.58729 19.3809 5.54922C19.3675 5.46357 19.3478 5.37905 19.3217 5.29638L19.5265 5.09155ZM6.21064 20.0838C5.52782 19.7411 4.9143 19.275 4.40106 18.7091C3.33214 17.4997 2.77083 15.9246 2.83396 14.3117C2.89709 12.6988 3.57979 11.1724 4.73997 10.0502L7.71938 7.07079C7.80905 6.98069 7.93076 6.9298 8.05788 6.92926C8.16499 6.92777 8.26863 6.9673 8.34754 7.03975C8.47924 7.16307 8.58479 7.31162 8.65793 7.47656C8.73106 7.6415 8.77028 7.81946 8.77326 7.99986C8.77623 8.18026 8.74289 8.35942 8.67523 8.52667C8.60757 8.69393 8.50697 8.84588 8.3794 8.97347L5.57752 11.7737C5.53799 11.8119 5.50647 11.8575 5.48478 11.908C5.4631 11.9585 5.45168 12.0128 5.4512 12.0678C5.45073 12.1227 5.46119 12.1772 5.482 12.228C5.50281 12.2789 5.53353 12.3251 5.57239 12.364C5.61124 12.4028 5.65744 12.4335 5.7083 12.4543C5.75915 12.4751 5.81364 12.4856 5.86859 12.4851C5.92353 12.4847 5.97783 12.4732 6.02832 12.4516C6.07881 12.4299 6.12447 12.3983 6.16264 12.3588L8.96163 9.56025L13.3145 5.20741C13.3979 5.12339 13.4972 5.05675 13.6066 5.01137C13.716 4.96598 13.8333 4.94274 13.9517 4.94299V4.94299C14.1309 4.94308 14.306 4.99628 14.455 5.09587C14.6039 5.19545 14.72 5.33695 14.7885 5.50249C14.8571 5.66803 14.875 5.85017 14.8401 6.0259C14.8052 6.20163 14.7189 6.36306 14.5923 6.4898L9.93118 11.1518C9.89166 11.1899 9.86013 11.2356 9.83844 11.2861C9.81676 11.3366 9.80534 11.3909 9.80486 11.4458C9.80439 11.5007 9.81486 11.5552 9.83566 11.6061C9.85647 11.6569 9.8872 11.7031 9.92605 11.742C9.9649 11.7809 10.0111 11.8116 10.062 11.8324C10.1128 11.8532 10.1673 11.8637 10.2223 11.8632C10.2772 11.8627 10.3315 11.8513 10.382 11.8296C10.4325 11.8079 10.4781 11.7764 10.5163 11.7369L15.1778 7.07493L17.0466 5.20659C17.1336 5.11959 17.2375 5.05125 17.3519 5.00574C17.4662 4.96022 17.5886 4.93848 17.7117 4.94185C17.8347 4.94522 17.9557 4.97363 18.0674 5.02533C18.1791 5.07704 18.2791 5.15096 18.3613 5.24259C18.4758 5.37162 18.548 5.53265 18.5682 5.70398C18.5682 5.71516 18.5682 5.72716 18.5702 5.73874C18.5744 5.78233 18.5755 5.82617 18.5735 5.86992C18.5735 5.88523 18.5706 5.90054 18.5694 5.91585C18.5654 5.95758 18.5589 5.99904 18.5499 6.03999C18.5466 6.05489 18.5429 6.06979 18.5388 6.08468C18.5267 6.1285 18.5117 6.17149 18.4941 6.21338C18.4899 6.22372 18.4858 6.23407 18.4813 6.244C18.4303 6.35431 18.3603 6.45475 18.2744 6.5407L17.3139 7.50115L17.088 7.72667L17.0855 7.72957V7.73164L11.797 13.0176C11.7575 13.0558 11.726 13.1014 11.7043 13.1519C11.6826 13.2024 11.6712 13.2567 11.6707 13.3117C11.6702 13.3666 11.6807 13.4211 11.7015 13.4719C11.7223 13.5228 11.7531 13.569 11.7919 13.6079C11.8308 13.6467 11.877 13.6774 11.9278 13.6982C11.9787 13.7191 12.0332 13.7295 12.0881 13.729C12.1431 13.7286 12.1974 13.7172 12.2478 13.6955C12.2983 13.6738 12.344 13.6423 12.3822 13.6027L17.6685 8.31635C17.6855 8.29938 17.705 8.28738 17.7227 8.27207C17.8869 8.13436 18.0933 8.0571 18.3075 8.05316C18.3161 8.05316 18.324 8.05316 18.3323 8.05316C18.3939 8.05476 18.4551 8.06252 18.5152 8.07634C18.6959 8.11893 18.8591 8.21634 18.9824 8.35524C19.076 8.46117 19.1407 8.58944 19.1702 8.72767C19.2057 8.89218 19.1991 9.06295 19.1513 9.22428C19.1034 9.3856 19.0157 9.5323 18.8963 9.65087L18.8135 9.73363L17.1347 11.4083C17.131 11.412 17.1302 11.4166 17.1265 11.4203L13.6625 14.8843C13.623 14.9225 13.5914 14.9681 13.5697 15.0186C13.5481 15.0691 13.5366 15.1234 13.5362 15.1783C13.5357 15.2333 13.5462 15.2878 13.567 15.3386C13.5878 15.3895 13.6185 15.4357 13.6573 15.4745C13.6962 15.5134 13.7424 15.5441 13.7933 15.5649C13.8441 15.5857 13.8986 15.5962 13.9535 15.5957C14.0085 15.5952 14.0628 15.5838 14.1133 15.5621C14.1638 15.5405 14.2094 15.5089 14.2476 15.4694L17.7236 11.9959C17.8511 11.868 18.0142 11.7815 18.1916 11.7476L18.2036 11.7443C18.2642 11.7335 18.3258 11.729 18.3873 11.7311C18.443 11.7331 18.4984 11.7402 18.5528 11.7522L18.5702 11.7547C18.5913 11.7596 18.6116 11.7692 18.6311 11.7754C18.7872 11.8231 18.9274 11.9122 19.037 12.0332C19.076 12.0764 19.1102 12.1237 19.1392 12.1743C19.236 12.3616 19.2698 12.5751 19.2358 12.7832C19.2017 12.9913 19.1015 13.1829 18.9501 13.3296L13.3509 18.9259C13.2371 19.0397 13.1196 19.1477 12.9991 19.2512C12.9768 19.2698 12.954 19.2872 12.9317 19.3058C12.8357 19.3857 12.7384 19.4626 12.6387 19.5363C12.5998 19.5649 12.5597 19.5922 12.5204 19.6191C12.4351 19.6787 12.3488 19.736 12.2613 19.7912C12.2133 19.8214 12.1653 19.8504 12.1165 19.8794C12.0337 19.9269 11.9535 19.9725 11.8703 20.0167C11.8157 20.0457 11.7606 20.0747 11.7048 20.102C11.6278 20.14 11.5496 20.1752 11.471 20.2096C11.4085 20.2373 11.3468 20.2658 11.2823 20.2923C11.2177 20.3188 11.1482 20.342 11.0811 20.3664C11.0034 20.3945 10.9264 20.4239 10.8478 20.4492C10.8325 20.4541 10.8167 20.4579 10.8014 20.4624C10.6806 20.4996 10.5585 20.534 10.4352 20.5638C10.4315 20.5638 10.4286 20.5675 10.4244 20.5688C9.00666 20.9101 7.51381 20.7383 6.21064 20.0838V20.0838ZM15.8337 18.8109C14.9773 19.6739 13.8836 20.2627 12.6917 20.5025C12.7165 20.4868 12.7389 20.4674 12.7637 20.4512C12.8969 20.3656 13.0252 20.2712 13.1535 20.1756C13.228 20.1206 13.3049 20.0693 13.3769 20.0101C13.5313 19.886 13.679 19.7502 13.8243 19.6108C13.8607 19.5764 13.9008 19.5467 13.936 19.5115L19.5348 13.9127C19.6095 13.836 19.6774 13.7529 19.7376 13.6644C19.7583 13.635 19.7756 13.6048 19.7947 13.5746C19.8273 13.5222 19.8573 13.4682 19.8845 13.4128C19.9076 13.3656 19.9292 13.3189 19.9482 13.2704C19.9602 13.2394 19.9697 13.2075 19.9801 13.1757C20.0515 12.9626 20.0821 12.738 20.0703 12.5136C20.0703 12.5012 20.0703 12.4888 20.0703 12.4763C20.0653 12.4059 20.0558 12.3358 20.0417 12.2665C20.0363 12.2388 20.0289 12.2119 20.0223 12.1838C20.0157 12.1556 20.0086 12.1159 19.9983 12.0832L20.2023 11.8788C20.2891 11.7914 20.3929 11.7226 20.5073 11.6767C20.6217 11.6307 20.7442 11.6087 20.8675 11.6118C20.9907 11.615 21.1119 11.6432 21.2238 11.6949C21.3357 11.7466 21.4359 11.8206 21.5182 11.9123C21.6696 12.1006 21.7448 12.3388 21.729 12.5798C21.7132 12.8209 21.6076 13.0473 21.4329 13.2142L15.8337 18.8109Z" fill="#282828"/>
<path d="M21.2496 10.8339L21.9651 10.1185C22.2922 9.80441 22.4864 9.37687 22.5077 8.9239C22.5291 8.47093 22.3759 8.02704 22.0797 7.68363C21.8471 7.42198 21.54 7.23786 21.1996 7.15603L21.3444 7.0112C21.6725 6.69752 21.8673 6.26969 21.8887 5.81628C21.91 5.36288 21.7562 4.91863 21.459 4.57553C21.3025 4.39976 21.1116 4.25801 20.898 4.15907C20.6845 4.06012 20.4529 4.0061 20.2176 4.00034C19.982 3.99573 19.7478 4.03803 19.5287 4.12477C19.3097 4.21151 19.11 4.34097 18.9414 4.5056L18.8615 4.58546C18.5556 4.29462 18.153 4.12694 17.731 4.11455C17.4961 4.11016 17.2627 4.15274 17.0445 4.23979C16.8263 4.32684 16.6276 4.4566 16.4602 4.62146L15.6363 5.44535C15.5456 5.06699 15.3302 4.73014 15.0249 4.48893C14.7196 4.24772 14.3421 4.11615 13.953 4.11538H13.9505C13.7237 4.11517 13.4991 4.15986 13.2897 4.24686C13.0802 4.33386 12.8901 4.46146 12.7302 4.62229L9.58524 7.76722C9.52637 7.25784 9.2878 6.78613 8.91239 6.43683C8.66635 6.21463 8.34414 6.0958 8.01275 6.10504C7.68136 6.11429 7.36627 6.25091 7.13302 6.48649L4.15361 9.4659C2.84264 10.7383 2.07299 12.4674 2.00493 14.2931C1.93687 16.1188 2.57563 17.9004 3.78822 19.2669C4.62097 20.1934 5.68764 20.8789 6.87642 21.2514C8.0652 21.6238 9.33229 21.6696 10.5449 21.384C10.8588 21.4266 11.1752 21.4485 11.4921 21.4493C12.4081 21.4499 13.3152 21.2688 14.1609 20.9165C15.0066 20.5643 15.774 20.0479 16.4188 19.3973L22.0177 13.8026C22.3439 13.4872 22.5374 13.0591 22.5585 12.6058C22.5795 12.1525 22.4266 11.7083 22.131 11.364C21.8984 11.1013 21.5908 10.9162 21.2496 10.8339V10.8339ZM21.4644 8.23648C21.6162 8.42344 21.692 8.66075 21.6767 8.9011C21.6613 9.14146 21.556 9.36721 21.3816 9.53335L19.6192 11.2958L19.5456 11.3694C19.5336 11.3578 19.5203 11.3487 19.5083 11.338C19.4789 11.3119 19.4492 11.2867 19.4185 11.2631C19.3879 11.2395 19.3457 11.2101 19.308 11.1853C19.2782 11.1658 19.2485 11.1439 19.2174 11.1277C19.1727 11.1025 19.1264 11.081 19.08 11.0599C19.0531 11.0475 19.0275 11.0338 19.0002 11.0231C18.925 10.9928 18.8477 10.9682 18.7689 10.9494L19.3407 10.3771L19.4843 10.2343C19.5574 10.1597 19.6241 10.0792 19.6838 9.9935C19.709 9.95833 19.7301 9.9215 19.7525 9.88509C19.7798 9.83957 19.8059 9.79405 19.8294 9.74688C19.853 9.6997 19.8808 9.64011 19.9023 9.58508C19.9097 9.5648 19.9155 9.5437 19.9225 9.52466C20.0022 9.29715 20.0353 9.05595 20.0198 8.8154V8.81167C20.0142 8.73352 20.0034 8.65583 19.9875 8.57911C19.9842 8.56256 19.9797 8.54601 19.9759 8.52946C19.9664 8.48808 19.9598 8.44669 19.9474 8.40987L20.1543 8.20296L20.1609 8.19634C20.2466 8.11039 20.349 8.04298 20.4618 7.99827C20.5747 7.95357 20.6955 7.93253 20.8168 7.93647C20.9395 7.93938 21.0604 7.96752 21.1718 8.01913C21.2832 8.07075 21.3828 8.14473 21.4644 8.23648V8.23648ZM19.5265 5.09155C19.6144 5.00459 19.7189 4.93633 19.8338 4.89089C19.9488 4.84544 20.0717 4.82375 20.1952 4.82713C20.3184 4.83042 20.4396 4.85897 20.5513 4.911C20.6629 4.96304 20.7628 5.03744 20.8445 5.12962C20.9965 5.31651 21.0722 5.55399 21.0564 5.79438C21.0406 6.03477 20.9345 6.26029 20.7593 6.42566L19.5745 7.60998L19.5663 7.61867L19.493 7.69232C19.4827 7.68281 19.4715 7.67494 19.4616 7.66584C19.4285 7.63646 19.3954 7.60791 19.3606 7.58308C19.3258 7.55825 19.2956 7.53632 19.2625 7.51439C19.2294 7.49246 19.1959 7.46928 19.1607 7.44942C19.1256 7.42956 19.078 7.40804 19.0366 7.389C19.0051 7.37411 18.9745 7.35797 18.9422 7.34514C18.8697 7.3164 18.7953 7.29262 18.7196 7.27397H18.7151L18.8603 7.12913C18.938 7.04996 19.0083 6.96396 19.0705 6.87216C19.0813 6.85685 19.0908 6.84154 19.1007 6.82581C19.1485 6.75282 19.191 6.67648 19.2278 6.59739C19.2381 6.57546 19.2493 6.55601 19.2588 6.53242C19.297 6.4421 19.3279 6.34883 19.3511 6.25352C19.3585 6.22331 19.3618 6.19269 19.3676 6.16248C19.38 6.09815 19.3891 6.03324 19.3949 5.96799C19.3983 5.92661 19.3999 5.88523 19.4003 5.84095C19.4003 5.78385 19.3974 5.72716 19.3925 5.67005C19.3887 5.62867 19.3871 5.58729 19.3809 5.54922C19.3675 5.46357 19.3478 5.37905 19.3217 5.29638L19.5265 5.09155ZM6.21064 20.0838C5.52782 19.7411 4.9143 19.275 4.40106 18.7091C3.33214 17.4997 2.77083 15.9246 2.83396 14.3117C2.89709 12.6988 3.57979 11.1724 4.73997 10.0502L7.71938 7.07079C7.80905 6.98069 7.93076 6.9298 8.05788 6.92926C8.16499 6.92777 8.26863 6.9673 8.34754 7.03975C8.47924 7.16307 8.58479 7.31162 8.65793 7.47656C8.73106 7.6415 8.77028 7.81946 8.77326 7.99986C8.77623 8.18026 8.74289 8.35942 8.67523 8.52667C8.60757 8.69393 8.50697 8.84588 8.3794 8.97347L5.57752 11.7737C5.53799 11.8119 5.50647 11.8575 5.48478 11.908C5.4631 11.9585 5.45168 12.0128 5.4512 12.0678C5.45073 12.1227 5.46119 12.1772 5.482 12.228C5.50281 12.2789 5.53353 12.3251 5.57239 12.364C5.61124 12.4028 5.65744 12.4335 5.7083 12.4543C5.75915 12.4751 5.81364 12.4856 5.86859 12.4851C5.92353 12.4847 5.97783 12.4732 6.02832 12.4516C6.07881 12.4299 6.12447 12.3983 6.16264 12.3588L8.96163 9.56025L13.3145 5.20741C13.3979 5.12339 13.4972 5.05675 13.6066 5.01137C13.716 4.96598 13.8333 4.94274 13.9517 4.94299V4.94299C14.1309 4.94308 14.306 4.99628 14.455 5.09587C14.6039 5.19545 14.72 5.33695 14.7885 5.50249C14.8571 5.66803 14.875 5.85017 14.8401 6.0259C14.8052 6.20163 14.7189 6.36306 14.5923 6.4898L9.93118 11.1518C9.89166 11.1899 9.86013 11.2356 9.83844 11.2861C9.81676 11.3366 9.80534 11.3909 9.80486 11.4458C9.80439 11.5007 9.81486 11.5552 9.83566 11.6061C9.85647 11.6569 9.8872 11.7031 9.92605 11.742C9.9649 11.7809 10.0111 11.8116 10.062 11.8324C10.1128 11.8532 10.1673 11.8637 10.2223 11.8632C10.2772 11.8627 10.3315 11.8513 10.382 11.8296C10.4325 11.8079 10.4781 11.7764 10.5163 11.7369L15.1778 7.07493L17.0466 5.20659C17.1336 5.11959 17.2375 5.05125 17.3519 5.00574C17.4662 4.96022 17.5886 4.93848 17.7117 4.94185C17.8347 4.94522 17.9557 4.97363 18.0674 5.02533C18.1791 5.07704 18.2791 5.15096 18.3613 5.24259C18.4758 5.37162 18.548 5.53265 18.5682 5.70398C18.5682 5.71516 18.5682 5.72716 18.5702 5.73874C18.5744 5.78233 18.5755 5.82617 18.5735 5.86992C18.5735 5.88523 18.5706 5.90054 18.5694 5.91585C18.5654 5.95758 18.5589 5.99904 18.5499 6.03999C18.5466 6.05489 18.5429 6.06979 18.5388 6.08468C18.5267 6.1285 18.5117 6.17149 18.4941 6.21338C18.4899 6.22372 18.4858 6.23407 18.4813 6.244C18.4303 6.35431 18.3603 6.45475 18.2744 6.5407L17.3139 7.50115L17.088 7.72667L17.0855 7.72957V7.73164L11.797 13.0176C11.7575 13.0558 11.726 13.1014 11.7043 13.1519C11.6826 13.2024 11.6712 13.2567 11.6707 13.3117C11.6702 13.3666 11.6807 13.4211 11.7015 13.4719C11.7223 13.5228 11.7531 13.569 11.7919 13.6079C11.8308 13.6467 11.877 13.6774 11.9278 13.6982C11.9787 13.7191 12.0332 13.7295 12.0881 13.729C12.1431 13.7286 12.1974 13.7172 12.2478 13.6955C12.2983 13.6738 12.344 13.6423 12.3822 13.6027L17.6685 8.31635C17.6855 8.29938 17.705 8.28738 17.7227 8.27207C17.8869 8.13436 18.0933 8.0571 18.3075 8.05316C18.3161 8.05316 18.324 8.05316 18.3323 8.05316C18.3939 8.05476 18.4551 8.06252 18.5152 8.07634C18.6959 8.11893 18.8591 8.21634 18.9824 8.35524C19.076 8.46117 19.1407 8.58944 19.1702 8.72767C19.2057 8.89218 19.1991 9.06295 19.1513 9.22428C19.1034 9.3856 19.0157 9.5323 18.8963 9.65087L18.8135 9.73363L17.1347 11.4083C17.131 11.412 17.1302 11.4166 17.1265 11.4203L13.6625 14.8843C13.623 14.9225 13.5914 14.9681 13.5697 15.0186C13.5481 15.0691 13.5366 15.1234 13.5362 15.1783C13.5357 15.2333 13.5462 15.2878 13.567 15.3386C13.5878 15.3895 13.6185 15.4357 13.6573 15.4745C13.6962 15.5134 13.7424 15.5441 13.7933 15.5649C13.8441 15.5857 13.8986 15.5962 13.9535 15.5957C14.0085 15.5952 14.0628 15.5838 14.1133 15.5621C14.1638 15.5405 14.2094 15.5089 14.2476 15.4694L17.7236 11.9959C17.8511 11.868 18.0142 11.7815 18.1916 11.7476L18.2036 11.7443C18.2642 11.7335 18.3258 11.729 18.3873 11.7311C18.443 11.7331 18.4984 11.7402 18.5528 11.7522L18.5702 11.7547C18.5913 11.7596 18.6116 11.7692 18.6311 11.7754C18.7872 11.8231 18.9274 11.9122 19.037 12.0332C19.076 12.0764 19.1102 12.1237 19.1392 12.1743C19.236 12.3616 19.2698 12.5751 19.2358 12.7832C19.2017 12.9913 19.1015 13.1829 18.9501 13.3296L13.3509 18.9259C13.2371 19.0397 13.1196 19.1477 12.9991 19.2512C12.9768 19.2698 12.954 19.2872 12.9317 19.3058C12.8357 19.3857 12.7384 19.4626 12.6387 19.5363C12.5998 19.5649 12.5597 19.5922 12.5204 19.6191C12.4351 19.6787 12.3488 19.736 12.2613 19.7912C12.2133 19.8214 12.1653 19.8504 12.1165 19.8794C12.0337 19.9269 11.9535 19.9725 11.8703 20.0167C11.8157 20.0457 11.7606 20.0747 11.7048 20.102C11.6278 20.14 11.5496 20.1752 11.471 20.2096C11.4085 20.2373 11.3468 20.2658 11.2823 20.2923C11.2177 20.3188 11.1482 20.342 11.0811 20.3664C11.0034 20.3945 10.9264 20.4239 10.8478 20.4492C10.8325 20.4541 10.8167 20.4579 10.8014 20.4624C10.6806 20.4996 10.5585 20.534 10.4352 20.5638C10.4315 20.5638 10.4286 20.5675 10.4244 20.5688C9.00666 20.9101 7.51381 20.7383 6.21064 20.0838V20.0838ZM15.8337 18.8109C14.9773 19.6739 13.8836 20.2627 12.6917 20.5025C12.7165 20.4868 12.7389 20.4674 12.7637 20.4512C12.8969 20.3656 13.0252 20.2712 13.1535 20.1756C13.228 20.1206 13.3049 20.0693 13.3769 20.0101C13.5313 19.886 13.679 19.7502 13.8243 19.6108C13.8607 19.5764 13.9008 19.5467 13.936 19.5115L19.5348 13.9127C19.6095 13.836 19.6774 13.7529 19.7376 13.6644C19.7583 13.635 19.7756 13.6048 19.7947 13.5746C19.8273 13.5222 19.8573 13.4682 19.8845 13.4128C19.9076 13.3656 19.9292 13.3189 19.9482 13.2704C19.9602 13.2394 19.9697 13.2075 19.9801 13.1757C20.0515 12.9626 20.0821 12.738 20.0703 12.5136C20.0703 12.5012 20.0703 12.4888 20.0703 12.4763C20.0653 12.4059 20.0558 12.3358 20.0417 12.2665C20.0363 12.2388 20.0289 12.2119 20.0223 12.1838C20.0157 12.1556 20.0086 12.1159 19.9983 12.0832L20.2023 11.8788C20.2891 11.7914 20.3929 11.7226 20.5073 11.6767C20.6217 11.6307 20.7442 11.6087 20.8675 11.6118C20.9907 11.615 21.1119 11.6432 21.2238 11.6949C21.3357 11.7466 21.4359 11.8206 21.5182 11.9123C21.6696 12.1006 21.7448 12.3388 21.729 12.5798C21.7132 12.8209 21.6076 13.0473 21.4329 13.2142L15.8337 18.8109Z" stroke="#282828" stroke-width="0.6" mask="url(#path-1-outside-1)"/>
</svg>
