<svg width="24" height="24" viewBox="0 0 24 24" fill="none" xmlns="http://www.w3.org/2000/svg">
<path d="M20.5875 11.3325L4.0875 3.0825C3.95818 3.01783 3.81292 2.99191 3.66921 3.00788C3.5255 3.02385 3.38947 3.08101 3.2775 3.1725C3.17057 3.26212 3.09075 3.37979 3.04703 3.51228C3.00331 3.64478 2.99741 3.78684 3.03 3.9225L5.25 12L3 20.055C2.96942 20.1683 2.96585 20.2872 2.98958 20.4021C3.01331 20.517 3.06367 20.6248 3.13662 20.7167C3.20957 20.8086 3.30307 20.8821 3.4096 20.9313C3.51613 20.9805 3.63272 21.0041 3.75 21C3.86741 20.9993 3.98301 20.971 4.0875 20.9175L20.5875 12.6675C20.7103 12.6046 20.8134 12.5089 20.8854 12.3912C20.9574 12.2734 20.9955 12.138 20.9955 12C20.9955 11.862 20.9574 11.7266 20.8854 11.6088C20.8134 11.4911 20.7103 11.3954 20.5875 11.3325V11.3325ZM4.9125 18.8325L6.57 12.75H13.5V11.25H6.57L4.9125 5.1675L18.57 12L4.9125 18.8325Z" fill="#282828"/>
</svg>
